<svg xmlns="http://www.w3.org/2000/svg" width="256" height="256" fill="none" viewBox="0 0 256 256">
<!-- SVG created with Arrow, by QuiverAI (https://quiver.ai) -->
  <path d="m157.5 79.41 85.59 43.29c5.66 2.97 6.15 7.25 5.9 12.21v19.01c0 4.83-2.08 8.02-6.33 10.35l-85.13 42.95v-28.86c0-4.53 1.9-7.28 5.67-9.08l58.32-29.97-58.32-21.67c-3.41-1.66-5.7-3.93-5.7-8.73v-29.5z" fill="url(#paint0_linear_1125_24111)"/>
  <path d="m249 146.5v7.46c0 4.83-2.08 8.02-6.33 10.35l-85.13 42.95v-8.14l85.13-43.71c4.04-2.16 5.93-4.96 6.33-8.91z" fill="url(#paint1_linear_1125_24111)"/>
  <path d="m157.5 103.8v5.09c0 4.8 2.29 7.07 5.7 8.73l50.89 26.55 7.4-4.88-58.32-29.97c-3.05-1.38-4.7-3.1-5.67-5.52z" fill="url(#paint2_linear_1125_24111)"/>
  <path d="m157.8 78.86 89.9 44.78c4.91 2.58 8.2 6.64 8.29 13.14l-0.26-6.07-4.83 0.81c-0.99-4.11-3.8-6.95-7.75-8.91l-85.35-43.2v-0.55z" fill="url(#paint3_linear_1125_24111)"/>
  <path d="m10.21 45.11c0-6.63 4.11-10.82 9.81-10.82h10.89c7.37 0 11.71 4.42 11.71 12.72l-0.2 80.97 44.66-50.94c6.21-7.03 12.71-8.83 22.13-8.83h2.95c8.33 0 10.41 6.76 6.77 13.78l-76.62 98.75v34.49c0 6.88-5.25 10.38-9.59 10.38h-12.7c-6.31 0-9.53-4.7-9.53-9.65l-0.28-170.8z" fill="url(#paint4_linear_1125_24111)"/>
  <path d="m11.01 209.2v5.84c0 6.02 3.77 10.35 9.29 10.35h12c6.31 0 9.81-4.1 9.81-9.19v-7c0 5.5-3.33 8.19-9.81 8.19h-11.21c-6.31 0-10.08-2.69-10.08-8.19z" fill="url(#paint5_linear_1125_24111)"/>
  <path d="m120 79.09c1.74 3.92 1.43 7.7-1.34 11.01l-76.33 91.1v-9.01l77.67-93.1z" fill="url(#paint6_linear_1125_24111)"/>
  <path d="m11.01 42.94-2.65 4.28c-1.93 3.29-2.36 6.21-2.36 10.59v36.15l5.01-29.86v-21.16z" fill="url(#paint7_linear_1125_24111)"/>
  <path d="m42.96 43.22 2.65 5.84c0.77 1.9 0.8 3.8 0.8 6.07v25.18l-3.79-8.7 0.34-28.39z" fill="url(#paint8_linear_1125_24111)"/>
  <path d="m90.71 73.01-3.63-1.8 13.34-11.27c2.39-1.25 4.5 0.09 4.33 2.07s-1.68 2.2-3.24 2.43c-5.4 0.77-8.05 3.31-10.8 8.57z" fill="#FAD423"/>
  <path d="m129.1 29c2.13 12.81 2.39 18.13 6.24 21.02 3.64 2.76 12.8 2.59 17.76 3.44v0.17c-4.96 0.85-14.12 1.48-17.76 4.24-3.85 2.89-4.59 9.31-6.47 20.04h-0.17c-1.39-10.19-2.61-16.84-6.75-19.9-3.19-2.33-10.53-2.9-16.2-4.38v-0.31c5.5-1.25 13.49-2.1 16.68-4.43 4.14-2.92 4.88-10.08 6.5-19.89h0.17z" fill="#FAD423"/>
  <path d="m155 33.01c-3.47 0-4.92 3.2-4.61 4.97 0.37 2.13 1.92 4.46 4.87 4.46 3.19 0 4.3-2.92 4.13-4.8s-1.62-4.63-4.39-4.63z" fill="#FAD423"/>
  <path d="m111.1 32.92c-3.03 0-2.86 2.59-2.69 3.66 0.25 1.34 1.36 2.13 2.43 2.13 1.99 0 3.15-1.3 3.15-2.89s-1.25-2.9-2.89-2.9z" fill="#FAD423"/>
  <path d="m144.6 68.01c-2.77 0-3.76 1.94-3.76 2.97 0 1.8 1.33 2.97 3.33 2.97 2.26 0 3.14-1.48 3.14-2.97s-1.25-2.97-2.71-2.97z" fill="#FAD423"/>
  <path d="m112.9 70.5c-2.95-0.49-3.54 2.17-3.54 2.96 0 1.75 1.3 2.92 2.84 2.92 1.98 0 3.06-1.64 3.06-2.92 0-1.27-0.88-2.73-2.36-2.96z" fill="#FAD423"/>
  <path d="m86.8 132.4 63.32 90.87h-26.36c-9.54 0-17.57-4.72-23.55-13.02l-29.49-35.92c-3.41-4.43-2.16-10.21-0.7-13.13l16.78-28.8z" fill="url(#paint9_linear_1125_24111)"/>
  <path d="m69.71 163.5 0.31 3.78c-0.66 3.42-0.31 5.69 1.76 8.55l19.41 24.45-2.47-9.36-19.01-27.42z" fill="url(#paint10_linear_1125_24111)"/>
  <defs>
    <linearGradient id="paint0_linear_1125_24111" x1="173.2" x2="208.6" y1="79.41" y2="170.4" gradientUnits="userSpaceOnUse">
      <stop stop-color="#88F1D1" offset="0"/>
      <stop stop-color="#50C9D6" offset=".4896"/>
      <stop stop-color="#3B97E5" offset="1"/>
    </linearGradient>
    <linearGradient id="paint1_linear_1125_24111" x1="203.2" x2="203.2" y1="146.5" y2="207.2" gradientUnits="userSpaceOnUse">
      <stop stop-color="#182841" offset="0"/>
      <stop stop-color="#111835" offset="1"/>
    </linearGradient>
    <linearGradient id="paint2_linear_1125_24111" x1="189.5" x2="189.5" y1="103.8" y2="144.2" gradientUnits="userSpaceOnUse">
      <stop stop-color="#182841" offset="0"/>
      <stop stop-color="#111835" offset="1"/>
    </linearGradient>
    <linearGradient id="paint3_linear_1125_24111" x1="206.9" x2="206.9" y1="78.86" y2="136.8" gradientUnits="userSpaceOnUse">
      <stop stop-color="#FEFFFE" offset="0"/>
      <stop stop-color="#FEF39A" offset=".2604"/>
      <stop stop-color="#FEE66E" offset=".5521"/>
      <stop stop-color="#FEF19A" offset="1"/>
    </linearGradient>
    <linearGradient id="paint4_linear_1125_24111" x1="64.42" x2="64.42" y1="34.29" y2="225.6" gradientUnits="userSpaceOnUse">
      <stop stop-color="#88F1D1" offset="0"/>
      <stop stop-color="#50B1E6" offset=".4896"/>
      <stop stop-color="#3957EA" offset="1"/>
    </linearGradient>
    <linearGradient id="paint5_linear_1125_24111" x1="26.56" x2="26.56" y1="209.2" y2="225.4" gradientUnits="userSpaceOnUse">
      <stop stop-color="#182841" offset="0"/>
      <stop stop-color="#111835" offset="1"/>
    </linearGradient>
    <linearGradient id="paint6_linear_1125_24111" x1="81.15" x2="81.15" y1="79.09" y2="181.2" gradientUnits="userSpaceOnUse">
      <stop stop-color="#182841" offset="0"/>
      <stop stop-color="#111835" offset=".4948"/>
    </linearGradient>
    <linearGradient id="paint7_linear_1125_24111" x1="8.504" x2="8.504" y1="42.94" y2="93.96" gradientUnits="userSpaceOnUse">
      <stop stop-color="#FEF39A" offset="0"/>
      <stop stop-color="#FEF19A" stop-opacity=".01" offset="1"/>
    </linearGradient>
    <linearGradient id="paint8_linear_1125_24111" x1="44.51" x2="44.51" y1="43.22" y2="80.31" gradientUnits="userSpaceOnUse">
      <stop stop-color="#FEF39A" offset="0"/>
      <stop stop-color="#FEF19A" stop-opacity=".01" offset="1"/>
    </linearGradient>
    <linearGradient id="paint9_linear_1125_24111" x1="109.9" x2="109.9" y1="132.4" y2="223.3" gradientUnits="userSpaceOnUse">
      <stop stop-color="#54A8E3" offset="0"/>
      <stop stop-color="#3957EA" offset="1"/>
    </linearGradient>
    <linearGradient id="paint10_linear_1125_24111" x1="75.72" x2="86.52" y1="165.9" y2="185.5" gradientUnits="userSpaceOnUse">
      <stop stop-color="#182841" offset="0"/>
      <stop stop-color="#111835" offset=".2708"/>
      <stop stop-color="#FAD423" offset=".5573"/>
      <stop stop-color="#FEFFFE" stop-opacity=".01" offset="1"/>
    </linearGradient>
  </defs>
</svg>